<svg width="30" height="30" viewBox="0 0 30 30" fill="none" xmlns="http://www.w3.org/2000/svg">
<g id="gmail_icon">
<path id="Vector" d="M8.36875 7.59375V24.0875H4.4125C3.99031 24.0875 3.58523 23.9207 3.28553 23.6233C2.98582 23.3259 2.8158 22.9222 2.8125 22.5V10.5125M21.6313 7.59375V24.0875H25.5875C26.0097 24.0875 26.4148 23.9207 26.7145 23.6233C27.0142 23.3259 27.1842 22.9222 27.1875 22.5V10.5125" stroke="white" stroke-miterlimit="10"/>
<path id="Vector_2" d="M15 19.6562L27.1875 10.625V8.37499C27.1864 7.91978 27.0591 7.4738 26.8198 7.08658C26.5805 6.69935 26.2385 6.38603 25.8319 6.18142C25.4252 5.97681 24.9699 5.88892 24.5163 5.9275C24.0627 5.96608 23.6287 6.12963 23.2625 6.39999L15 12.5375L6.7375 6.39999C6.37127 6.12963 5.93728 5.96608 5.48371 5.9275C5.03014 5.88892 4.57476 5.97681 4.16813 6.18142C3.7615 6.38603 3.41954 6.69935 3.18024 7.08658C2.94093 7.4738 2.81364 7.91978 2.8125 8.37499V10.625L15 19.6562Z" stroke="white" stroke-miterlimit="10"/>
</g>
</svg>
